<svg width="119" height="44" viewBox="0 0 119 44" fill="none" xmlns="http://www.w3.org/2000/svg">
<g id="Group">
<g id="Group_2">
<path id="Vector" d="M7.65087 3.82464H11.4771V0H7.65087H3.82623H0V3.82464H3.82623H7.65087Z" fill="#37802E"/>
<path id="Vector_2" d="M7.65087 9.56194H11.4771V5.7373H7.65087H3.82623H0V9.56194H3.82623H7.65087Z" fill="#37802E"/>
<path id="Vector_3" d="M7.65087 15.3002H11.4771V11.4756H7.65087H3.82623H0V15.3002H3.82623H7.65087Z" fill="#37802E"/>
<path id="Vector_4" d="M7.65087 21.0375H11.4771V17.2129H7.65087H3.82623H0V21.0375H3.82623H7.65087Z" fill="#37802E"/>
<path id="Vector_5" d="M7.65087 26.7758H11.4771V22.9512H7.65087H3.82623H0V26.7758H3.82623H7.65087Z" fill="#37802E"/>
<path id="Vector_6" d="M7.65087 32.5131H11.4771V28.6885H7.65087H3.82623H0V32.5131H3.82623H7.65087Z" fill="#37802E"/>
<path id="Vector_7" d="M30.6035 34.4268H26.7788H22.9526H19.1279H15.3017H11.4771H7.65087H3.82623H0V38.2514H3.82623H7.65087H11.4771H15.3017H19.1279H22.9526H26.7788H30.6035H34.4297V34.4268H30.6035Z" fill="#37802E"/>
<path id="Vector_8" d="M30.6035 40.1641H26.7788H22.9526H19.1279H15.3017H11.4771H7.65087H3.82623H0V43.9887H3.82623H7.65087H11.4771H15.3017H19.1279H22.9526H26.7788H30.6035H34.4297V40.1641H30.6035Z" fill="#37802E"/>
</g>
<g id="Group_3">
<path id="Vector_9" d="M49.7314 15.3002H53.5577V11.4756H49.7314H45.9068H42.0806V15.3002H45.9068H49.7314Z" fill="#EE8414"/>
<path id="Vector_10" d="M49.7314 32.5131H53.5577V28.6885H49.7314H45.9068H42.0806V32.5131H45.9068H49.7314Z" fill="#EE8414"/>
<path id="Vector_11" d="M68.8594 34.4268H65.0332H61.2085H57.3823H53.5577H49.7314H45.9068H42.0806V38.2514H45.9068H49.7314H53.5577H57.3823H61.2085H65.0332H68.8594H76.5102V34.4268H68.8594Z" fill="#EE8414"/>
<path id="Vector_12" d="M68.8594 40.1641H65.0332H61.2085H57.3823H53.5577H49.7314H45.9068H42.0806V43.9887H45.9068H49.7314H53.5577H57.3823H61.2085H65.0332H68.8594H76.5102V40.1641H68.8594Z" fill="#EE8414"/>
<path id="Vector_13" d="M68.8594 17.2129H65.0332H61.2085H57.3823H53.5577H49.7314H45.9068H42.0806V21.0375H45.9068H49.7314H53.5577H57.3823H61.2085H65.0332H68.8594H76.5102V17.2129H68.8594Z" fill="#EE8414"/>
<path id="Vector_14" d="M68.8594 22.9512H65.0332H61.2085H57.3823H53.5577H49.7314H45.9068H42.0806V26.7758H45.9068H49.7314H53.5577H57.3823H61.2085H65.0332H68.8594H76.5102V22.9512H68.8594Z" fill="#EE8414"/>
<path id="Vector_15" d="M68.8594 0H65.0332H61.2085H57.3823H53.5577H49.7314H45.9068H42.0806V3.82464H45.9068H49.7314H53.5577H57.3823H61.2085H65.0332H68.8594H76.5102V0H68.8594Z" fill="#EE8414"/>
<path id="Vector_16" d="M68.8594 5.7373H65.0332H61.2085H57.3823H53.5577H49.7314H45.9068H42.0806V9.56194H45.9068H49.7314H53.5577H57.3823H61.2085H65.0332H68.8594H76.5102V5.7373H68.8594Z" fill="#EE8414"/>
</g>
<g id="Group_4">
<path id="Vector_17" d="M91.812 15.311H95.6382V11.4863H91.812H87.9874H84.1611V15.311H87.9874H91.812Z" fill="#9B0014"/>
<path id="Vector_18" d="M110.94 28.6992H107.114V32.5239H110.94H114.765H118.591V28.6992H114.765H110.94Z" fill="#9B0014"/>
<path id="Vector_19" d="M110.94 34.4375H107.114H103.289H99.4629H95.6382H91.812H87.9874H84.1611V38.2621H87.9874H91.812H95.6382H99.4629H103.289H107.114H110.94H118.591V34.4375H110.94Z" fill="#9B0014"/>
<path id="Vector_20" d="M110.94 40.1748H107.114H103.289H99.4629H95.6382H91.812H87.9874H84.1611V43.9994H87.9874H91.812H95.6382H99.4629H103.289H107.114H110.94H118.591V40.1748H110.94Z" fill="#9B0014"/>
<path id="Vector_21" d="M110.94 17.2236H107.114H103.289H99.4629H95.6382H91.812H87.9874H84.1611V21.0483H87.9874H91.812H95.6382H99.4629H103.289H107.114H110.94H118.591V17.2236H110.94Z" fill="#9B0014"/>
<path id="Vector_22" d="M110.94 22.9619H107.114H103.289H99.4629H95.6382H91.812H87.9874H84.1611V26.7866H87.9874H91.812H95.6382H99.4629H103.289H107.114H110.94H118.591V22.9619H110.94Z" fill="#9B0014"/>
<path id="Vector_23" d="M110.94 0.0107422H107.114H103.289H99.4629H95.6382H91.812H87.9874H84.1611V3.83538H87.9874H91.812H95.6382H99.4629H103.289H107.114H110.94H118.591V0.0107422H110.94Z" fill="#9B0014"/>
<path id="Vector_24" d="M110.94 5.74805H107.114H103.289H99.4629H95.6382H91.812H87.9874H84.1611V9.57269H87.9874H91.812H95.6382H99.4629H103.289H107.114H110.94H118.591V5.74805H110.94Z" fill="#9B0014"/>
</g>
</g>
</svg>
