<svg width="20" height="21" viewBox="0 0 20 21" fill="none" xmlns="http://www.w3.org/2000/svg">
<g id="airplane-seat">
<path id="Vector" d="M7.06799 15.3812H14.9768C15.91 15.3812 16.6666 14.6376 16.6666 13.7204C16.6666 12.4645 14.9768 12.0596 14.9768 12.0596C14.9768 12.0596 11.9036 10.8782 8.33325 12.0479C8.33325 12.0479 8.21741 7.77513 6.42479 3.02341C6.07111 2.0859 4.91758 1.76581 4.07108 2.32043C3.51248 2.68643 3.23383 3.34757 3.3655 3.99456L5.41098 14.0461C5.56894 14.8224 6.26248 15.3812 7.06799 15.3812Z" stroke="#202020" stroke-width="1.25" stroke-linecap="round" stroke-linejoin="round"/>
<path id="Vector_2" d="M10.4167 9.13086H15.0001" stroke="#202020" stroke-width="1.25" stroke-linecap="round" stroke-linejoin="round"/>
<path id="Vector_3" d="M13.3334 15.3809L10.8334 18.7142M10.8334 18.7142H6.66675M10.8334 18.7142H15.0001" stroke="#202020" stroke-width="1.25" stroke-linecap="round" stroke-linejoin="round"/>
</g>
</svg>
