<svg width="115" height="40" viewBox="0 0 115 40" fill="none" xmlns="http://www.w3.org/2000/svg">
<g id="kelloggs_logo.svg" clip-path="url(#clip0_39_1064)">
<g id="Group">
<g id="Group_2">
<g id="Group_3">
<path id="Vector" d="M109.741 13.3361C107.727 13.3361 105.95 14.996 103.699 16.7744C101.567 18.5529 97.4208 22.8212 93.5116 25.311C94.5777 23.6511 97.1839 19.9757 97.5393 18.1972C97.8947 16.4188 96.5916 15.7074 94.8147 16.7744C92.8009 17.9601 90.9054 23.8882 88.1808 23.8882C87.707 23.8882 87.3516 23.6512 87.3516 23.0584C87.3516 21.2799 90.0762 17.9601 94.8147 16.0631C95.5255 15.826 95.8808 15.2331 95.8808 14.8775C95.8808 14.7589 95.8808 13.929 94.3408 13.929C89.6024 13.929 83.2055 19.3829 82.3762 23.6512C81.4285 24.5997 79.77 25.9038 77.7562 26.8523C80.1254 23.5326 82.1392 20.8056 83.2054 17.9601C84.39 14.6403 82.7316 14.2846 80.8362 15.2331C79.0592 16.1816 77.8746 18.79 77.2823 19.7385C76.8085 20.687 76.3346 21.9913 74.7946 23.1769C73.2546 24.3625 71.5962 24.2439 72.7808 21.7541C73.8469 19.62 76.0977 17.3673 77.9931 16.3002C78.467 16.0631 78.8224 15.9445 78.8224 15.2331C78.8224 14.2846 77.6377 13.5733 75.9793 14.2846C73.7285 15.2331 72.6623 15.826 70.7669 15.826C69.2269 15.826 68.5162 15.4703 67.9239 15.1146C67.0947 14.7589 66.5023 14.8774 66.147 14.996C65.7916 15.1146 65.3177 15.3517 64.9623 15.826C64.607 16.1816 64.37 16.7745 64.37 17.1302C63.8962 19.7386 61.6454 24.4811 59.8685 24.4811C59.2762 24.4811 58.6839 24.3625 58.8023 22.9398C59.0392 20.687 61.7639 17.723 62.3562 17.1302C62.9485 16.5374 64.1331 16.1817 64.2515 15.4703C64.37 14.8775 64.0147 14.2846 62.83 14.2846C59.2762 14.2846 54.4193 19.2643 53.9454 23.7697C53.3531 24.244 52.7608 24.8368 51.9315 24.8368C50.2731 24.8368 49.7992 23.2954 49.9177 22.1098C54.3008 18.1972 62.5931 9.42352 62.83 3.13966C62.83 1.59834 62.1192 0.887001 60.9346 0.887001C57.8546 0.887001 53.59 5.39242 50.8654 8.83076C47.5484 13.099 45.5346 18.3158 44.8238 22.2284C42.4546 24.3625 41.3885 24.4811 40.3223 24.4811C38.9008 24.4811 38.3084 23.414 38.4269 22.5841C42.4546 18.9086 49.5623 10.0164 49.6807 5.62953C49.6807 4.32534 48.97 3.73248 47.6669 3.73248C44.9423 3.73248 40.9146 6.69658 38.0715 10.4906C35.2284 14.4032 33.4515 18.9086 32.8592 23.0584C30.7269 24.9554 29.1869 25.311 27.8838 25.311C27.0546 25.311 26.4623 24.7182 26.3438 24.4811C28.2392 23.414 32.5038 20.6871 32.5038 16.6559C32.5038 14.6403 31.2007 13.6918 29.7792 13.6918C26.3438 13.6918 21.013 17.9601 21.013 23.8882C21.013 24.0068 21.013 24.3625 21.013 24.4811C19.473 25.0739 18.4069 25.5482 18.6438 26.7338C18.8807 27.8009 20.0653 27.6823 21.7238 27.0895C22.0792 27.8008 23.7376 28.9865 25.9884 28.9865C29.0684 28.9865 31.4376 27.5637 33.2146 25.9038C34.0438 27.6823 35.9392 28.6308 37.9531 28.6308C40.3223 28.6308 42.81 26.9709 44.7053 25.4296C44.9423 26.8524 46.3638 28.9865 48.8515 28.9865C51.1023 28.9865 52.7607 27.6823 54.1823 26.2595C54.5377 27.6823 55.8408 28.8679 57.4993 28.8679C63.1854 28.8679 66.3839 20.8056 67.0946 17.9601C67.2131 17.6044 67.5685 17.4858 67.8054 17.6044C68.8715 17.9601 69.3454 18.1972 70.7669 17.9601C68.6346 19.62 66.7393 22.5841 66.7393 24.7182C66.7393 26.8523 68.5162 27.8009 69.9377 27.8009C71.2408 27.8009 73.0177 26.9709 74.2023 25.7853C73.847 26.3781 73.4916 27.3266 72.7808 28.038C71.5962 28.3937 68.0423 29.6978 65.6731 31.002C63.5408 32.3062 61.4085 34.4404 61.4085 36.8117C61.4085 38.1159 62.4746 39.6572 64.9623 39.6572C69.1085 39.6572 72.07 36.9302 75.9793 29.8164C79.2962 28.3937 81.1916 27.208 82.4947 26.141C83.087 27.0895 84.1531 27.5638 85.2193 27.5638C86.7593 27.5638 87.8254 27.0895 89.0101 26.141C88.7731 26.6152 88.5362 27.2081 88.0624 27.8009C85.6931 28.7494 82.9685 30.0536 81.547 30.8835C77.7562 33.1362 76.9269 35.2703 76.9269 36.9302C76.9269 37.8787 77.7562 39.6572 80.3624 39.6572C85.9301 39.6572 89.3655 32.7805 91.6162 28.7494C93.2747 27.9194 95.6439 26.2595 98.0131 24.3625C97.8947 24.5997 97.8947 24.9553 97.8947 25.311C97.8947 27.0895 99.4347 28.6308 102.041 28.6308C107.135 28.6308 108.675 24.8368 108.675 20.8056C108.675 19.5014 108.438 18.4343 108.438 17.9601C108.438 16.7744 108.793 16.0631 109.978 16.0631C111.162 16.0631 111.873 15.826 111.873 14.8775C111.992 13.929 111.044 13.3361 109.741 13.3361ZM58.3284 6.10374C58.4469 6.10374 58.5654 6.22236 58.5654 6.45949C58.5654 8.00081 54.4192 14.5218 50.6284 18.3158C52.7607 11.5577 57.3807 6.10374 58.3284 6.10374ZM25.7515 22.3469C25.87 19.5014 28.2392 17.2487 29.0684 17.2487C29.4238 17.2487 29.5423 17.4859 29.5423 17.8415C29.5423 18.9086 28.2392 21.0427 25.7515 22.3469ZM45.0608 8.47501C45.1792 8.47501 45.2976 8.59363 45.2976 8.83076C45.2976 10.0164 42.3362 15.4703 38.5454 19.2643C40.5592 13.099 43.7577 8.47501 45.0608 8.47501ZM65.91 36.3374C65.6731 36.3374 65.4361 36.1003 65.4361 35.8632C65.4361 34.0847 69.3454 32.0692 71.3592 31.3578C70.53 32.662 67.2131 36.3374 65.91 36.3374ZM81.4285 36.456C81.1916 36.456 81.0731 36.3374 81.0731 35.9817C81.0731 34.4404 84.627 32.0692 86.6408 31.3578C85.4562 33.1362 82.4946 36.456 81.4285 36.456ZM102.515 25.311C102.278 25.311 101.922 25.311 101.922 24.4811C101.922 23.8882 101.685 23.1769 100.619 23.1769C100.501 23.1769 100.382 23.1769 100.145 23.1769C102.396 21.3984 104.055 19.5014 105.713 18.1972C105.358 22.2284 104.41 25.311 102.515 25.311Z" fill="#D31245"/>
<path id="Vector_2" d="M100.619 12.5062C100.501 13.2176 99.7901 13.5733 99.6716 14.1661C99.6716 14.5218 99.9085 14.7589 100.382 14.7589C101.567 14.7589 104.647 12.9805 105.002 10.1349C105.121 8.71218 104.292 7.52654 102.752 7.52654C101.212 7.52654 99.7901 8.94928 99.6716 10.2535C99.4347 11.4391 100.619 11.9134 100.619 12.5062ZM19.2361 32.4248C18.2884 32.4248 17.8145 31.1207 17.8145 29.6979C17.8145 28.1566 18.8807 24.5997 19.2361 23.0584C19.7099 21.3985 19.8284 18.7901 18.2884 17.2487C23.9745 14.996 32.3854 7.17083 33.4515 5.51094C34.5177 3.85106 34.7546 1.59841 33.2146 0.531342C31.793 -0.535728 29.3053 0.887032 27.8838 2.90261C23.9746 8.59365 21.6053 11.3206 18.8807 13.6918C16.7484 15.4703 15.8007 15.5889 14.7345 15.7074C14.7345 15.7074 18.6438 9.30502 20.0653 7.408C21.8422 5.1553 19.71 4.32533 17.5776 5.74809C17.1038 5.98521 13.9053 8.35651 9.87763 10.3721C2.76993 14.0475 1.11144 15.7074 1.11144 17.8416C1.11144 18.7901 1.82223 20.0943 3.24377 20.0943C5.96839 20.0943 8.81146 15.1146 10.1145 13.929C10.5884 13.4547 11.8915 12.3877 12.3653 12.3877C12.4838 12.3877 12.6022 12.5062 12.6022 12.7434C12.6022 13.6919 10.7069 16.4188 7.86377 19.5015C3.71761 24.0069 0.282227 25.7853 0.282227 28.6308C0.282227 30.5278 1.70377 31.4763 3.24377 31.4763C6.44224 31.4763 8.57455 27.208 9.87763 25.0739C10.3515 24.244 13.1945 19.0272 13.7869 17.8416C14.3792 18.1973 14.7346 18.9086 14.6161 20.2128C14.2607 22.7027 12.0099 25.7853 12.0099 29.935C12.0099 33.3734 15.2084 34.4404 16.5115 34.4404C17.6961 34.4404 19.2361 33.9661 19.5915 32.7805C19.5915 32.662 19.473 32.4248 19.2361 32.4248ZM113.413 12.7434C114.124 12.7434 114.479 13.2176 114.479 13.8104C114.479 14.5218 114.005 14.8775 113.413 14.8775C112.702 14.8775 112.347 14.4032 112.347 13.8104C112.347 13.2176 112.702 12.7434 113.413 12.7434ZM113.413 14.6403C113.887 14.6403 114.242 14.2846 114.242 13.8104C114.242 13.3361 113.887 12.9805 113.413 12.9805C112.939 12.9805 112.584 13.3361 112.584 13.8104C112.584 14.4032 112.939 14.6403 113.413 14.6403ZM113.413 13.3362C113.532 13.3362 113.769 13.4547 113.769 13.6918C113.769 13.8104 113.65 13.929 113.532 14.0475C113.65 14.1661 113.65 14.2847 113.769 14.2847H113.887C113.887 14.2847 113.887 14.2846 113.887 14.4032C113.887 14.5218 113.887 14.5218 113.769 14.5218C113.532 14.5218 113.532 14.2846 113.413 14.0475H113.295V14.4032H113.176C113.058 14.4032 113.058 14.4032 113.058 14.2847V13.3362H113.176H113.413ZM113.295 13.4547V13.6918H113.413C113.532 13.6918 113.65 13.6919 113.65 13.5733C113.65 13.4547 113.65 13.4547 113.532 13.4547H113.295Z" fill="#D31245"/>
</g>
</g>
</g>
</g>
<defs>
<clipPath id="clip0_39_1064">
<rect width="114.286" height="40" fill="white" transform="translate(0.25)"/>
</clipPath>
</defs>
</svg>
