<svg width="20" height="21" viewBox="0 0 20 21" fill="none" xmlns="http://www.w3.org/2000/svg">
<g id="comment-01">
<path id="Vector" d="M6.66675 11.6305H13.3334M6.66675 7.46387H10.0001" stroke="#202020" stroke-width="1.25" stroke-linecap="round" stroke-linejoin="round"/>
<path id="Vector_2" d="M5.08242 16.2139C3.999 16.1073 3.18737 15.7819 2.64306 15.2375C1.66675 14.2613 1.66675 12.6899 1.66675 9.5472V9.13053C1.66675 5.98783 1.66675 4.41649 2.64306 3.44018C3.61937 2.46387 5.19071 2.46387 8.33341 2.46387H11.6667C14.8094 2.46387 16.3808 2.46387 17.3571 3.44018C18.3334 4.41649 18.3334 5.98783 18.3334 9.13053V9.5472C18.3334 12.6899 18.3334 14.2613 17.3571 15.2375C16.3808 16.2139 14.8094 16.2139 11.6667 16.2139C11.1997 16.2243 10.8277 16.2598 10.4622 16.343C9.46358 16.573 8.53883 17.0839 7.62497 17.5296C6.32282 18.1645 5.67175 18.482 5.26316 18.1848C4.48149 17.6026 5.24553 15.7988 5.41675 14.9639" stroke="#202020" stroke-width="1.25" stroke-linecap="round"/>
</g>
</svg>
