<svg width="200" height="201" viewBox="0 0 200 201" fill="none" xmlns="http://www.w3.org/2000/svg">
<g id="database-setting">
<path id="Vector" d="M91.6667 125.69C54.8477 125.69 25 114.498 25 100.69" stroke="#9B0014" stroke-width="3" stroke-linejoin="round"/>
<path id="Vector_2" d="M83.3333 96.3304C74.3171 95.9087 65.86 94.812 58.3333 93.1787M83.3333 154.664C74.3171 154.242 65.86 153.145 58.3333 151.512" stroke="#9B0014" stroke-width="3" stroke-linejoin="round"/>
<path id="Vector_3" d="M91.6667 67.3574C128.486 67.3574 158.333 56.1645 158.333 42.3574C158.333 28.5503 128.486 17.3574 91.6667 17.3574C54.8477 17.3574 25 28.5503 25 42.3574C25 56.1645 54.8477 67.3574 91.6667 67.3574Z" stroke="#9B0014" stroke-width="3" stroke-linejoin="round"/>
<path id="Vector_4" d="M91.6667 184.024C54.8477 184.024 25 172.832 25 159.024V42.3574M158.333 42.3574V92.3574" stroke="#9B0014" stroke-width="3" stroke-linejoin="round"/>
<path id="Vector_5" d="M141.667 173.31V188.191M141.667 173.31C132.027 173.31 123.534 168.575 118.553 161.385M141.667 173.31C151.307 173.31 159.799 168.575 164.781 161.385M118.553 161.385L104.167 171.524M118.553 161.385C115.607 157.132 113.889 152.022 113.889 146.524C113.889 141.027 115.606 135.917 118.552 131.665M164.781 161.385L179.167 171.524M164.781 161.385C167.727 157.132 169.444 152.022 169.444 146.524C169.444 141.027 167.728 135.917 164.782 131.665M141.667 119.738C151.308 119.738 159.801 124.474 164.782 131.665M141.667 119.738C132.026 119.738 123.533 124.474 118.552 131.665M141.667 119.738V104.857M164.782 131.665L179.167 121.524M118.552 131.665L104.167 121.524" stroke="#9B0014" stroke-width="3" stroke-linejoin="round"/>
</g>
</svg>
