<svg width="64" height="64" viewBox="0 0 64 64" fill="none" xmlns="http://www.w3.org/2000/svg">
<g id="global">
<path id="Vector" d="M58.6666 31.9997C58.6666 17.2721 46.7274 5.33301 31.9999 5.33301C17.2723 5.33301 5.33325 17.2721 5.33325 31.9997C5.33325 46.7271 17.2723 58.6663 31.9999 58.6663C46.7274 58.6663 58.6666 46.7271 58.6666 31.9997Z" stroke="#202020" stroke-width="2" stroke-linejoin="round"/>
<path id="Vector_2" d="M53.3334 15.197C50.8409 15.3766 47.6483 16.3416 45.4345 19.2071C41.4361 24.3826 37.4374 24.8145 34.7718 23.0893C30.7731 20.5015 34.1334 16.31 29.4403 14.0321C26.3818 12.5475 25.9553 8.50754 27.6577 5.33301" stroke="#202020" stroke-width="2" stroke-linejoin="round"/>
<path id="Vector_3" d="M5.33325 29.333C7.36659 31.0986 10.2145 32.7149 13.5699 32.7149C20.5024 32.7149 21.8889 34.0394 21.8889 39.3378C21.8889 44.6362 21.8889 44.6362 23.2754 48.6098C24.1773 51.1946 24.4925 53.7794 22.6949 55.9997" stroke="#202020" stroke-width="2" stroke-linejoin="round"/>
<path id="Vector_4" d="M58.6666 35.8731C56.301 34.5099 53.3333 33.9491 50.329 36.1083C44.5805 40.2398 40.617 36.8163 38.8317 40.2374C36.2039 45.2736 45.5885 46.8566 37.3333 58.667" stroke="#202020" stroke-width="2" stroke-linejoin="round"/>
</g>
</svg>
