<svg width="142" height="40" viewBox="0 0 142 40" fill="none" xmlns="http://www.w3.org/2000/svg">
<g id="Logo.svg" clip-path="url(#clip0_39_971)">
<g id="Group">
<path id="Vector" d="M42.0535 9.28223H48.1672C48.3462 9.28223 48.4741 9.43607 48.4741 9.58992V29.4874C48.4741 29.6668 48.3207 29.795 48.1672 29.795H42.0535C41.8745 29.795 41.7466 29.6412 41.7466 29.4874V9.61556C41.7466 9.43607 41.8745 9.28223 42.0535 9.28223Z" fill="#E32851"/>
<path id="Vector_2" d="M65.8942 9.48735L61.8525 20.2566C61.827 20.3079 61.7502 20.3079 61.7246 20.2566L57.6574 9.48735C57.6062 9.35915 57.5039 9.28223 57.3504 9.28223H50.6485C50.4182 9.28223 50.2648 9.513 50.3415 9.71812L58.3992 29.5899C58.4504 29.7181 58.5527 29.795 58.7062 29.795H64.5896C64.7175 29.795 64.8454 29.7181 64.8966 29.5899L72.9799 9.74376C73.0566 9.53864 72.9031 9.30787 72.6729 9.30787H66.15C66.0477 9.28223 65.9198 9.38479 65.8942 9.48735Z" fill="#FF932C"/>
<path id="Vector_3" d="M130.126 8.97363C123.731 8.97363 119.075 13.4865 119.075 19.5634C119.075 25.6403 123.731 30.1531 130.126 30.1531C136.444 30.1531 141.176 25.589 141.176 19.5634C141.176 13.5121 136.47 8.97363 130.126 8.97363ZM130.126 24.3839C127.619 24.3839 125.956 22.4608 125.956 19.5634C125.956 16.6659 127.619 14.7429 130.126 14.7429C132.607 14.7429 134.295 16.6659 134.295 19.5634C134.295 22.4352 132.607 24.3839 130.126 24.3839Z" fill="#0088D9"/>
<path id="Vector_4" d="M39.4956 9.2052C39.3166 9.15392 39.0864 9.10264 38.8561 9.05136C38.4724 9.00007 34.3029 8.51289 32.0007 11.6411C31.9495 11.6924 31.8728 11.6667 31.8728 11.5898V9.94879V9.61546C31.8728 9.43597 31.7193 9.30777 31.5658 9.30777H25.4266C25.2475 9.30777 25.1196 9.46161 25.1196 9.61546V29.4873C25.1196 29.6667 25.2731 29.7949 25.4266 29.7949H31.5402C31.7193 29.7949 31.8472 29.6411 31.8472 29.4873V22.1026C31.8472 16.5898 34.4052 15.2052 36.912 15.2052C37.219 15.2052 38.0632 15.2052 39.291 15.5385C39.4956 15.5898 39.7003 15.436 39.7003 15.2308V9.48725C39.7003 9.35905 39.6235 9.23084 39.4956 9.2052Z" fill="#E32851"/>
<path id="Vector_5" d="M45.1233 0C42.9746 0 41.2607 1.66667 41.2607 3.74359C41.2607 5.82051 43.0002 7.48718 45.1233 7.48718C47.2721 7.48718 48.9859 5.82051 48.9859 3.74359C48.9859 1.66667 47.2465 0 45.1233 0Z" fill="#E32851"/>
<path id="Vector_6" d="M93.9557 9.28193H87.842C87.663 9.28193 87.5351 9.43578 87.5351 9.58963V11.5383C87.5351 11.6153 87.4328 11.6409 87.4072 11.564C85.2073 6.92296 72.0847 7.8204 72.0847 19.5127C72.0847 30.4358 83.2888 32.3845 87.4072 27.8204C87.4584 27.7691 87.5351 27.7948 87.5351 27.8717V29.4614C87.5351 29.6409 87.6886 29.7691 87.842 29.7691H93.9557C94.1347 29.7691 94.2626 29.6153 94.2626 29.4614V9.61527C94.2626 9.43578 94.1347 9.28193 93.9557 9.28193ZM83.2632 24.3589C80.5773 24.3589 78.6844 22.4614 78.6844 19.564C78.6844 16.6666 80.5773 14.7178 83.2632 14.7178C86.0003 14.7178 87.842 16.6922 87.842 19.564C87.842 22.4358 86.0003 24.3589 83.2632 24.3589Z" fill="#FF932C"/>
<path id="Vector_7" d="M117.08 9.28157H110.966C110.787 9.28157 110.659 9.43541 110.659 9.58926V11.538C110.659 11.6149 110.557 11.6405 110.531 11.5636C108.306 6.87131 96.1042 8.0508 96.1042 18.9226C96.1042 29.5893 107.232 30.4867 110.557 27.3585C110.608 27.3072 110.685 27.3585 110.685 27.4098V28.3585C110.608 32.8969 104.929 34.8457 102.039 31.4098C101.937 31.2816 101.757 31.2559 101.63 31.3585L96.4368 34.7687C96.2833 34.8713 96.2577 35.0764 96.36 35.2303C102.96 44.2559 117.31 39.6662 117.412 28.4611V9.6149C117.412 9.43541 117.259 9.28157 117.08 9.28157ZM106.976 23.2816C104.546 23.2816 102.832 21.5893 102.832 18.9482C102.832 16.3072 104.52 14.5893 106.976 14.5893C109.457 14.5893 111.12 16.3585 111.12 18.9482C111.12 21.538 109.457 23.2816 106.976 23.2816Z" fill="#0088D9"/>
<path id="Vector_8" d="M22.9709 18.5895H16.8317C16.6782 18.5895 16.5247 18.7177 16.5247 18.8972C16.3201 21.41 14.2225 23.41 11.6645 23.41C8.56933 23.3844 7.3159 20.769 7.3159 20.769C6.77872 19.769 6.75314 18.7947 6.75314 18.5895C6.75314 18.5639 6.77872 18.5382 6.77872 18.5382L8.54375 17.5639L19.6455 11.41C19.8246 11.3075 19.9269 11.128 19.9269 10.9485V4.33312C19.9269 4.10235 19.6711 3.9485 19.4664 4.05106L6.85546 11.0254C6.8043 11.0511 6.75314 11.0254 6.75314 10.9741V0.563885C6.75314 0.307475 6.47176 0.153629 6.26712 0.307475L0.230221 4.20491C0.0767402 4.30748 0 4.46132 0 4.64081V18.5639C0.0511602 24.9741 5.24392 30.1536 11.6389 30.1536C17.9316 30.1536 23.0477 25.1536 23.2779 18.8972C23.3035 18.7434 23.15 18.5895 22.9709 18.5895Z" fill="#E32851"/>
</g>
</g>
<defs>
<clipPath id="clip0_39_971">
<rect width="141.176" height="40" fill="white"/>
</clipPath>
</defs>
</svg>
