<svg width="98" height="40" viewBox="0 0 98 40" fill="none" xmlns="http://www.w3.org/2000/svg">
<g id="Logo.svg" clip-path="url(#clip0_39_1031)">
<g id="Group">
<path id="Vector" d="M0.898438 21.648C0.943422 21.5193 0.988406 21.397 1.05267 21.2747C2.56928 18.2042 9.05346 16.9361 18.3459 18.0626L20.216 11.1749C10.6536 9.95831 3.67461 11.3294 2.51145 15.6873L0.898438 21.648Z" fill="#0095FF"/>
<path id="Vector_2" d="M35.7934 14.4766C35.7548 14.5796 35.7163 14.6825 35.6713 14.7855C34.2189 17.9011 27.7091 19.1885 18.3459 18.0556L16.4758 24.9433C26.0382 26.1599 33.0172 24.7888 34.1804 20.4309L35.7934 14.4766Z" fill="#0000C9"/>
<path id="Vector_3" d="M7.01611 7.2158C21.1283 8.23286 35.5426 15.2235 34.1802 20.444L35.4462 15.7835C35.8511 14.3159 36.0503 13.5563 36.0503 12.9448C36.0503 7.62777 22.1373 1.1392 8.88618 0.328125L7.01611 7.2158Z" fill="#0095FF"/>
<g id="Group_2">
<path id="Vector_4" d="M29.6755 28.9024C15.5632 27.8918 1.14896 20.9011 2.51777 15.6807L1.25178 20.3411C0.846921 21.8088 0.647705 22.5683 0.647705 23.1799C0.647705 28.4969 14.5607 34.9855 27.8118 35.7965L29.6755 28.9024Z" fill="#0000C9"/>
<path id="Vector_5" d="M81.1505 27.2802C79.3639 27.306 78.4128 26.1666 78.4128 24.1453C78.4128 24.0102 78.4193 23.8814 78.4257 23.7527H85.4433C85.5846 23.2184 85.6746 22.6391 85.6746 22.1048C85.6746 19.6394 84.1644 17.7598 81.0798 17.7598C77.9244 17.7598 75.1226 20.8753 75.1226 24.1453C75.1226 27.2802 77.1661 29.1856 80.5721 29.1856C82.0823 29.1856 83.5668 28.677 84.6078 27.8853L83.9588 26.2567C83.1491 26.8875 82.153 27.2609 81.1505 27.2802ZM81.1312 19.5235C82.1722 19.5235 82.7056 20.1994 82.7056 21.6864C82.7056 21.828 82.6992 21.9761 82.6799 22.1305H78.6763C79.1133 20.5599 80.0451 19.5235 81.1312 19.5235Z" fill="#0000C9"/>
<path id="Vector_6" d="M53.3695 17.0643C53.3695 14.5088 51.3773 12.6484 48.3569 12.6484H42.5154L38.1069 28.9085H41.7956L43.4215 22.9156H46.6218C50.2848 22.9156 53.3695 20.5467 53.3695 17.0643ZM45.208 21.0102H43.942L45.69 14.5538H47.0203C48.6975 14.5538 49.6422 15.6932 49.6422 17.1995C49.6358 19.6134 47.7464 21.0102 45.208 21.0102Z" fill="#0000C9"/>
<path id="Vector_7" d="M58.1763 18.0625L58.5876 16.5497C58.7933 15.758 59.1467 14.4126 59.6287 12.8549C60.1364 11.252 61.0682 10.2543 62.3213 10.2543C62.9254 10.2543 63.2981 10.5311 63.2981 10.9945C63.2724 11.5031 62.8547 11.8056 62.8547 12.6231C62.8547 13.5758 63.6644 14.3161 64.7119 14.3161C66.01 14.3161 67.0511 13.2733 67.0511 11.9923C67.0511 10.0161 65.361 8.71582 62.784 8.71582C59.0053 8.71582 56.5248 11.1297 54.9696 16.775L48.6589 39.749H52.232L57.6815 19.8391H61.3959L58.9539 28.8961H62.527L65.451 18.0496H58.1763V18.0625Z" fill="#0000C9"/>
<path id="Vector_8" d="M76.2599 18.0625H66.8003L66.3312 19.852H70.9132L63.8057 28.909H73.8243L74.287 27.1195H69.1331L76.2599 18.0625Z" fill="#0000C9"/>
<path id="Vector_9" d="M94.9991 17.876C93.7203 17.876 92.3579 18.7064 91.2912 20.4251L91.9145 18.0627H88.3415L85.4175 28.9091H88.9905L90.3143 24.0298C90.8477 22.0343 92.1459 20.0839 93.007 20.0839C93.9324 20.0839 93.5854 21.8283 95.1855 21.8283C96.3423 21.8283 97.0427 20.7598 97.0427 19.7813C97.0363 18.642 96.1366 17.876 94.9991 17.876Z" fill="#0000C9"/>
</g>
</g>
</g>
<defs>
<clipPath id="clip0_39_1031">
<rect width="96.7742" height="40" fill="white" transform="translate(0.5)"/>
</clipPath>
</defs>
</svg>
