<svg width="97" height="40" viewBox="0 0 97 40" fill="none" xmlns="http://www.w3.org/2000/svg">
<g id="Group">
<path id="Vector" fill-rule="evenodd" clip-rule="evenodd" d="M96.6283 20.6671C96.6283 13.8314 93.3258 8.4375 87.0138 8.4375C80.6752 8.4375 76.8401 13.8314 76.8401 20.6137C76.8401 28.6511 81.3677 32.7099 87.8661 32.7099C91.0354 32.7099 93.4323 31.9889 95.2434 30.9742V25.6338C93.4323 26.5416 91.355 27.1024 88.7183 27.1024C86.1349 27.1024 83.8445 26.1945 83.5516 23.0436H96.575C96.575 22.6965 96.6283 21.308 96.6283 20.6671ZM83.4717 18.1304C83.4717 15.1131 85.3093 13.8581 86.9872 13.8581C88.6118 13.8581 90.3429 15.1131 90.3429 18.1304H83.4717Z" fill="#635BFF"/>
<path id="Vector_2" fill-rule="evenodd" clip-rule="evenodd" d="M66.5598 8.4375C63.9497 8.4375 62.2719 9.66581 61.3397 10.5203L60.9935 8.86474H55.1343V39.9996L61.7925 38.5844L61.8191 31.0276C62.7779 31.7219 64.1894 32.7099 66.5331 32.7099C71.3004 32.7099 75.6416 28.8647 75.6416 20.4001C75.6149 12.6565 71.2205 8.4375 66.5598 8.4375ZM64.9618 26.8354C63.3905 26.8354 62.4583 26.2746 61.8191 25.5804L61.7925 15.6738C62.4849 14.8994 63.4437 14.3654 64.9618 14.3654C67.3854 14.3654 69.0633 17.089 69.0633 20.587C69.0633 24.1651 67.412 26.8354 64.9618 26.8354Z" fill="#635BFF"/>
<path id="Vector_3" fill-rule="evenodd" clip-rule="evenodd" d="M45.9727 6.86248L52.6575 5.42056V0L45.9727 1.41522V6.86248Z" fill="#635BFF"/>
<path id="Vector_4" d="M52.6575 8.8916H45.9727V32.2561H52.6575V8.8916Z" fill="#635BFF"/>
<path id="Vector_5" fill-rule="evenodd" clip-rule="evenodd" d="M38.8082 10.8672L38.3821 8.89124H32.6294V32.2557H39.2876V16.4213C40.8589 14.3652 43.5222 14.739 44.3478 15.0328V8.89124C43.4956 8.57082 40.3796 7.98337 38.8082 10.8672Z" fill="#635BFF"/>
<path id="Vector_6" fill-rule="evenodd" clip-rule="evenodd" d="M25.4918 3.09766L18.9934 4.48617L18.9668 25.8747C18.9668 29.8266 21.923 32.7372 25.8647 32.7372C28.0486 32.7372 29.6466 32.3366 30.5255 31.856V26.4354C29.6732 26.7826 25.4652 28.0109 25.4652 24.0589V14.5796H30.5255V8.89205H25.4652L25.4918 3.09766Z" fill="#635BFF"/>
<path id="Vector_7" fill-rule="evenodd" clip-rule="evenodd" d="M7.48811 15.6738C7.48811 14.6324 8.34036 14.2319 9.7519 14.2319C11.776 14.2319 14.3327 14.846 16.3568 15.9408V9.6658C14.1463 8.78463 11.9624 8.4375 9.7519 8.4375C4.34543 8.4375 0.75 11.2679 0.75 15.9942C0.75 23.3641 10.8705 22.1892 10.8705 25.3667C10.8705 26.595 9.80517 26.9956 8.31373 26.9956C6.1032 26.9956 3.28012 26.0877 1.04296 24.8594V31.2145C3.51982 32.2826 6.0233 32.7366 8.31373 32.7366C13.8534 32.7366 17.6619 29.9862 17.6619 25.2065C17.6352 17.2492 7.48811 18.6645 7.48811 15.6738Z" fill="#635BFF"/>
</g>
</svg>
