<svg width="64" height="64" viewBox="0 0 64 64" fill="none" xmlns="http://www.w3.org/2000/svg">
<g id="students">
<path id="Vector" d="M42.6667 43.2606C48.1027 41.6339 53.8155 43.3505 58.6667 48.4105V53.3337H42.6667" stroke="white" stroke-width="2" stroke-linejoin="round"/>
<path id="Vector_2" d="M6.66675 16.0003L21.3334 10.667L36.0001 16.0003L29.3334 20.0003V24.0003C29.3334 24.0003 27.5555 22.667 21.3334 22.667C15.1112 22.667 13.3334 24.0003 13.3334 24.0003V20.0003L6.66675 16.0003ZM6.66675 16.0003V26.667" stroke="white" stroke-width="2" stroke-linecap="square" stroke-linejoin="round"/>
<path id="Vector_3" d="M29.3333 22.667V25.0374C29.3333 29.6193 25.7515 33.3337 21.3333 33.3337C16.915 33.3337 13.3333 29.6193 13.3333 25.0374V22.667" stroke="white" stroke-width="2" stroke-linecap="square" stroke-linejoin="round"/>
<path id="Vector_4" d="M40.8485 29.4117C40.8485 29.4117 42.1413 28.4707 46.6667 28.4707C51.192 28.4707 52.4848 29.4117 52.4848 29.4117M40.8485 29.4117V26.6667L36 24L46.6667 20L57.3333 24L52.4848 26.6667V29.4117M40.8485 29.4117V30.1819C40.8485 33.3952 43.4533 36 46.6667 36C49.88 36 52.4848 33.3952 52.4848 30.1819V29.4117" stroke="white" stroke-width="2" stroke-linecap="square" stroke-linejoin="round"/>
<path id="Vector_5" d="M37.3333 47.1794C27.5439 37.6069 15.1226 37.6069 5.33325 47.1794V53.3333H37.3333V47.1794Z" stroke="white" stroke-width="2" stroke-linecap="square" stroke-linejoin="round"/>
</g>
</svg>
