<svg width="64" height="64" viewBox="0 0 64 64" fill="none" xmlns="http://www.w3.org/2000/svg">
<g id="user-group">
<path id="Vector" d="M45.3333 28.0003C49.0151 28.0003 51.9999 25.0156 51.9999 21.3337C51.9999 17.6518 49.0151 14.667 45.3333 14.667M58.6666 48.0003C58.6666 40.6366 52.697 34.667 45.3333 34.667" stroke="#202020" stroke-width="2"/>
<path id="Vector_2" d="M18.6665 28.0003C14.9846 28.0003 11.9999 25.0156 11.9999 21.3337C11.9999 17.6518 14.9846 14.667 18.6665 14.667M5.33325 48.0003C5.33325 40.6366 11.3028 34.667 18.6666 34.667" stroke="#202020" stroke-width="2"/>
<path id="Vector_3" d="M41.3334 20.0003C41.3334 25.155 37.1547 29.3337 32.0001 29.3337C26.8454 29.3337 22.6667 25.155 22.6667 20.0003C22.6667 14.8457 26.8454 10.667 32.0001 10.667C37.1547 10.667 41.3334 14.8457 41.3334 20.0003Z" stroke="#202020" stroke-width="2"/>
<path id="Vector_4" d="M13.3333 53.333H50.6666C50.6666 44.4965 42.3093 37.333 31.9999 37.333C21.6906 37.333 13.3333 44.4965 13.3333 53.333Z" stroke="#202020" stroke-width="2"/>
</g>
</svg>
